<?xml version="1.0" standalone="no"?>
<svg id="SvgjsSvg1001" width="600" height="600" xmlns="http://www.w3.org/2000/svg" version="1.1" xmlns:xlink="http://www.w3.org/1999/xlink" xmlns:svgjs="http://svgjs.com/svgjs" class="svg-paper" viewBox="0 0 600 600"><title id="SvgjsTitle1405">x=cos((cos(y) - x * y))|y=2|dTest=0.0|sd=0.4|sm=0.5|ts=0.05 | generated with FlowLines</title><g id="SvgjsG1406"><polyline id="SvgjsPolyline1407" points="0,521.08 5.1,510.22 7.04,501.47 5.99,492.57 0.36,478.69" fill="none" stroke="#000000" stroke-width="1"/><polyline id="SvgjsPolyline1408" points="30.59,597.86 17.82,570.72 13.89,556.3 14.42,547.35 16.31,541.67 23.87,525.34 25.42,519.55 25.76,513.57 23.25,501.88 11.96,477.37 8.59,465.9 9.34,456.99 16.49,440.5 17.86,431.66 15.92,422.91 8.35,406.58 5.96,397.94 6.95,389.06 14.16,372.59 15.28,363.72 13.06,355.03 5.56,338.68 3.88,329.88 5.51,321.07 14.05,301.91 15.63,293.08 15.05,287.13 13.34,281.38 3.72,259.43 2.57,250.54 5.03,238.85 17.44,211.55 20.18,199.91 20.15,193.91 19.03,188.03 9.48,166.04 7.94,160.25 7.56,154.28 10.1,142.6 22.62,115.35 25.62,103.77 24.81,94.86 17.7,78.35 16.43,69.5 18.34,60.73 29.58,36.2 32.08,27.57 31.74,18.64 24.91,2.03" fill="none" stroke="#000000" stroke-width="1"/><polyline id="SvgjsPolyline1409" points="49.26,599.01 50.68,590.15 61.11,565.29 62.48,553.42 61.24,544.52 57.71,533.06 41.25,497.72 38.09,489.3 36.8,483.45 37.07,474.49 38.84,468.77 46.05,452.3 46.85,443.39 44.76,434.66 35.95,415.61 33.45,406.99 33.99,398.06 42.18,378.76 43.32,369.89 41.32,361.15 32.65,342.04 31.14,336.24 30.95,330.25 33.17,321.56 41.83,302.45 43.31,296.64 43.68,290.66 41.05,279.01 31.16,257.16 29.62,251.37 29.09,245.4 29.66,239.43 32.11,230.78 45.97,200.85 50.08,186.46 50.33,177.49 49.28,171.59 38.74,146.78 37.38,140.94 37.18,134.95 38.08,129.03 40.87,120.48 52.42,96.08 56.38,84.77 57.19,78.84 56.73,72.87 48.84,53.47 47.9,44.57 50.95,33.01 62.5,8.61 65.62,0.18" fill="none" stroke="#000000" stroke-width="1"/><polyline id="SvgjsPolyline1410" points="4.11,597.56 5.25,591.68 5.17,585.69 3.31,576.9 0.25,568.44" fill="none" stroke="#000000" stroke-width="1"/><polyline id="SvgjsPolyline1411" points="37.87,597.36 33.33,583.08 32.55,577.14 32.84,571.15 35.44,562.56 44.07,543.44 45.26,537.57 45.35,531.58 44.47,525.65 41.9,517.03 28.05,487.09 24.64,475.63 25,466.68 33.08,447.35 34.31,438.48 32.42,429.72 23.68,410.63 21.49,401.94 22.61,393.07 29.88,376.62 31.26,367.78 29.36,359.02 20.76,339.88 19.24,331.05 20.9,322.25 30.45,300.26 31.58,291.37 30.77,285.43 28.96,279.72 19.19,257.82 17.69,248.97 19.53,237.17 33.11,207.12 37.08,192.71 37.29,186.72 36.47,180.78 33.57,172.27 26.05,155.93 24.56,150.13 24.21,144.15 26.7,132.45 39.27,105.23 42.93,93.83 43.42,87.86 42.52,81.94 35.42,65.43 34.09,56.59 36.91,44.98 47.17,23.29 50.31,14.86 51.56,5.98 50.6,0.08" fill="none" stroke="#000000" stroke-width="1"/><polyline id="SvgjsPolyline1412" points="0.58,132.68 3.36,124.14 3.89,118.18 2.89,112.28 0.68,106.7" fill="none" stroke="#000000" stroke-width="1"/><polyline id="SvgjsPolyline1413" points="0.3,59.73 2.33,51 0.62,42.24" fill="none" stroke="#000000" stroke-width="1"/><polyline id="SvgjsPolyline1414" points="0.23,76.54 11.32,51.94 13.48,43.24 12.92,37.29 7.02,23.53 5.23,14.73 5.6,8.76 8.36,0.21" fill="none" stroke="#000000" stroke-width="1"/><polyline id="SvgjsPolyline1415" points="71.89,599.92 75.27,591.58 77.27,582.83 77.28,573.85 75.79,564.98 72.38,553.48 67.98,542.32 48.77,501.63 46.02,493.07 45.15,487.15 46.1,478.24 54.39,458.97 55.87,450.14 55.18,444.19 53.46,438.44 44.61,419.41 41.89,410.85 41.56,404.88 42.74,399.01 50.07,382.58 51.84,373.8 51.24,367.85 49.46,362.12 39.88,340.16 39.07,331.24 41.22,322.53 49.94,303.44 51.58,297.67 52.19,291.71 51.64,285.75 50.08,279.96 39.09,255.32 37.05,243.55 37.56,237.58 39.91,228.9 54.97,196.22 59.26,181.88 59.81,172.92 59.02,166.97 56.22,158.44 47.68,139.28 46.52,133.4 46.52,127.41 49.38,115.79 63.25,85.86 66.72,74.4 67.1,68.42 66.12,62.51 58.99,46.01 57.7,37.16 60.4,25.52 71.91,1.1" fill="none" stroke="#000000" stroke-width="1"/><polyline id="SvgjsPolyline1416" points="97.52,599.39 84.44,565.86 58.63,511.71 54.2,497.41 53.76,491.43 54.52,485.49 63.72,463.38 64.92,454.5 62.37,442.82 52.33,421.04 49.99,412.37 50.57,403.44 58.82,384.17 60.38,375.35 58.86,366.52 49.09,344.61 47.17,335.85 47.51,329.88 49.09,324.1 58.87,302.2 60.31,296.38 60.72,290.41 58.36,278.69 46.4,251.22 45.07,239.35 45.87,233.41 48.45,224.8 63.66,192.18 66.8,183.75 68.9,175.01 69.39,166.04 68.58,160.1 65.78,151.56 57.23,132.4 56.05,126.53 56.02,120.54 58.79,108.9 73.83,76.21 77.07,64.68 77.28,58.7 76.13,52.82 70.01,39.14 67.89,30.44 68.24,24.46 69.69,18.65 76.85,2.15" fill="none" stroke="#000000" stroke-width="1"/><polyline id="SvgjsPolyline1417" points="120.86,597.98 118.99,583.1 119.7,571.15 123.2,559.7 133.07,537.84 135.1,529.09 135.52,520.11 133.96,508.22 129.7,493.86 123.88,480.04 110.86,453.01 106.54,438.69 106.29,432.71 107.24,426.79 116.72,404.78 118.28,399 118.74,393.03 116.4,381.31 104.15,353.95 102.21,345.18 102.26,339.19 105.41,327.65 116.53,303.07 118.64,294.34 118.97,285.36 118.17,279.42 115.71,270.77 103.13,243.55 100.02,235.11 98.16,226.31 97.9,217.33 99.83,205.51 103.53,194.1 131.61,134.39 136.02,123.23 139.37,111.72 140.65,102.82 140.2,93.85 137.73,85.21 129.24,66.03 128.09,60.15 128.07,54.15 129.75,45.33 132.67,36.82 149.46,1.63" fill="none" stroke="#000000" stroke-width="1"/><polyline id="SvgjsPolyline1418" points="115.98,599.6 105.07,568.47 103.03,559.71 102.09,550.77 102.43,541.78 103.55,535.89 115.18,508.29 116.49,502.44 116.78,493.46 115.29,484.6 112.57,476.02 97.47,443.36 94.19,431.85 93.99,425.86 95.06,419.97 103.52,400.77 105.28,395.04 105.92,389.09 105.33,383.13 103.74,377.35 92.61,352.77 90.9,347.02 90.17,341.07 90.63,335.1 92.17,329.31 104.24,301.88 106.08,293.08 106.23,287.09 105.5,281.14 103.02,272.5 91.65,248.02 88.53,239.58 86.77,230.77 86.55,224.78 88.29,212.93 92.03,201.54 115.09,152.72 122.2,132.99 124.13,121.16 123.64,112.2 121.17,103.56 112.61,84.4 111.33,78.55 111.52,69.58 115.74,55.22 133.76,17.29 139.88,0.39" fill="none" stroke="#000000" stroke-width="1"/><polyline id="SvgjsPolyline1419" points="112.51,599.2 91.57,552.7 86.64,538.54 84.82,529.73 84.56,523.75 85.32,517.8 87.83,509.17 96.46,490.04 97.95,484.23 98.4,478.26 97.82,472.29 95.49,463.61 82.96,436.37 79.51,424.91 79.32,418.93 80.46,413.05 88.91,393.85 90.39,388.04 90.64,382.06 87.7,370.48 77.76,348.65 76.27,342.84 75.91,336.86 76.8,330.94 78.68,325.25 86.39,308.98 89.54,300.56 91.06,288.71 90.38,282.75 87.87,274.12 75.51,246.81 73.33,238.09 72.88,232.11 73.77,223.17 77.15,211.67 98.65,165.44 102.63,154.13 104.59,145.35 105.1,136.38 104.39,130.43 101.72,121.85 93.17,102.69 91.95,96.82 91.86,90.83 92.8,84.91 95.49,76.33 112.03,41.03 116.58,26.76 117.17,20.8 116.59,14.84 114.79,9.12 110.92,1" fill="none" stroke="#000000" stroke-width="1"/><polyline id="SvgjsPolyline1420" points="107.28,597.33 78.02,538.17 72.24,524.34 69.74,515.7 68.97,506.76 69.88,500.83 79.26,478.79 80.66,472.96 80.94,466.98 78.54,455.26 67.34,430.71 64.68,422.13 64.36,416.15 65.5,410.28 73.89,391.05 75.31,382.2 73.86,373.35 63.03,348.65 61.37,339.84 61.88,333.87 63.53,328.11 74.33,303.4 75.52,297.53 75.68,291.54 73.1,279.86 60.93,252.47 59.1,243.67 59.29,234.7 61.24,225.92 64.34,217.47 83.18,176.63 85.74,168.01 86.99,159.11 86.76,153.12 84.68,144.38 77.15,128.04 74.24,119.54 73.48,113.6 73.78,107.61 77.85,93.22 91.93,63.38 95.07,54.95 96.35,49.1 96.46,43.11 95.13,37.27 87.62,20.93 86.04,15.15 85.83,9.17 87.65,0.37" fill="none" stroke="#000000" stroke-width="1"/><polyline id="SvgjsPolyline1421" points="141.25,598.44 147.77,584.93 150.74,576.45 152.67,564.62 152.52,552.64 149.68,534.88 143.82,514.72 136.02,495.23 117.93,457.33 113.72,442.98 113.46,436.99 114.34,431.07 124.78,406.22 126.03,400.36 126.16,394.37 123.4,382.74 111.08,355.4 109.14,346.64 109.15,340.64 112.19,329.08 121.18,310.1 124.36,301.69 126.23,292.9 126.52,286.91 125.5,277.98 123,269.34 107.13,233.76 104.96,225.03 104.28,216.07 105.65,204.16 111.02,187.01 139.32,127.4 145.04,113.53 148.63,102.09 150.43,90.25 149.78,81.29 147.11,72.71 139.65,56.35 138.2,50.53 137.86,44.55 139.17,35.66 141.86,27.08 152.93,2.47" fill="none" stroke="#000000" stroke-width="1"/><polyline id="SvgjsPolyline1422" points="167.94,597.59 160.71,562.33 150.68,527.77 139.67,499.87 120.27,459.28 115.94,444.95 115.56,438.97 116.3,433.03 118.08,427.31 126.7,408.17 128.12,402.35 128.45,396.37 126.01,384.67 112.7,354.5 111.38,348.66 111.08,342.67 113.63,331 123.75,309.25 126.82,300.79 128.53,291.97 128.72,285.97 127.57,277.06 125,268.44 109.09,232.87 106.91,224.15 106.18,215.19 108.13,200.35 112.74,186.08 119.95,169.6 142.26,123.74 147.96,109.87 151.54,98.42 153.33,86.58 152.66,77.62 149.96,69.05 142.51,52.68 141.11,46.85 140.8,40.87 141.5,34.92 143.82,26.23 154.52,1.46" fill="none" stroke="#000000" stroke-width="1"/><polyline id="SvgjsPolyline1423" points="193.32,599.5 181.78,571.83 132.84,472.2 127.55,458.18 125.89,449.35 125.92,443.35 127.02,437.46 137.61,412.67 138.93,406.83 139.19,400.84 138.39,394.9 135.73,386.31 123.28,359.03 121.14,350.31 120.91,344.32 123.48,332.65 136.84,302.51 138.88,293.75 139.36,284.78 138.24,275.86 135.79,267.21 121.99,237.25 117.74,226.04 115.46,214.28 115.38,205.29 117.98,190.54 122.77,176.33 131.24,157.12 156.16,105.86 162.83,89.15 166.06,77.6 167.19,68.68 166.53,59.73 163.81,51.16 156.4,34.78 154.79,25.95 155.47,17 159.65,2.61" fill="none" stroke="#000000" stroke-width="1"/><polyline id="SvgjsPolyline1424" points="213.15,597.38 227.2,567.53 233.3,547.47 236.15,523.66 235.42,496.69 232.3,475.94 226.94,455.64 218.34,433.25 197.82,389.86 194.19,378.44 192.89,366.54 193.94,357.62 196.52,349 211.71,316.38 217.58,299.38 221.1,278.7 221.1,254.73 218.37,233.92 213.47,213.51 205.22,190.98 186.34,150.16 182.74,135.63 182.18,123.66 184.8,105.88 192.2,83.06 204.15,55.55 230.29,1.55" fill="none" stroke="#000000" stroke-width="1"/><polyline id="SvgjsPolyline1425" points="200.48,597.47 200.39,579.48 202.37,564.62 207.59,547.42 220.36,520.28 224.43,509 227.29,494.3 227.58,479.32 225.69,464.45 221.11,447.05 213.43,427.52 194.26,386.82 190.89,375.32 190.06,363.38 190.84,357.43 193.29,348.78 208.43,316.14 213.5,302.03 217.1,284.42 217.87,263.45 215.6,242.59 210.85,222.15 202.67,199.6 187.12,167.14 182.62,156.02 179.12,141.46 178.6,129.48 179.48,120.53 181.95,108.8 189.69,86.09 203.11,55.95 229.49,2.06" fill="none" stroke="#000000" stroke-width="1"/><polyline id="SvgjsPolyline1426" points="198.41,599.98 189.48,546.73 188.37,534.78 188.27,522.79 189.27,513.85 191.45,505.12 203.78,477.8 206.85,469.34 208.68,460.54 208.9,448.57 206.89,436.75 203.27,425.31 182.23,378.89 179.9,370.21 179.13,361.26 180.23,352.34 182.92,343.76 196.9,313.88 201.79,299.71 204.49,284.97 204.66,267 201.9,249.22 196.8,231.97 189.93,215.35 175.55,185.64 171.19,174.47 167.82,159.88 167.28,147.9 168.1,138.94 170.49,127.19 179.21,101.66 192.8,71.59 227.53,1.75" fill="none" stroke="#000000" stroke-width="1"/><polyline id="SvgjsPolyline1427" points="197.25,598.31 189.47,566.25 173.34,514.72 169.97,497.06 169.61,488.07 170.61,479.14 173.2,470.53 182.11,451.52 185.16,443.06 186.66,434.21 186.34,425.23 184.47,416.43 181.51,407.94 165.25,372.51 162.87,363.84 162.2,357.88 162.9,348.93 165.39,340.29 178.07,313.12 182.99,298.96 185.04,287.15 184.91,272.18 182.83,260.37 178.3,246.08 160.52,208.05 156.09,196.9 152.62,182.33 152,170.36 152.77,161.4 155.12,149.63 159.54,135.3 165,121.33 221.88,2.24" fill="none" stroke="#000000" stroke-width="1"/><polyline id="SvgjsPolyline1428" points="196.63,599.22 192.01,581.82 186.28,564.76 157.84,498.63 153.73,487.36 150.96,475.7 150.64,466.72 151.58,460.8 155.32,449.41 164.08,430.34 166.17,421.61 166.42,415.62 165.14,406.73 162.39,398.16 147.53,365.4 145.42,356.66 145.29,347.69 148.26,336.1 158.49,314.39 162.9,303.24 165.56,291.56 165.94,279.58 164.09,267.74 160.48,256.3 145.22,223.71 140.77,212.57 137.86,200.94 137.01,188.99 139.4,171.18 146.83,148.39 157.79,123.72 185.52,67.15 197,39.45 200.42,27.95 202.06,19.1 202.37,10.12 200.79,1.28" fill="none" stroke="#000000" stroke-width="1"/><polyline id="SvgjsPolyline1429" points="238.18,599.42 239.5,566.45 239.34,530.45 237.57,503.52 234.52,482.75 230.41,465.23 224.84,448.11 217.96,431.49 198.63,390.86 194.89,379.47 193.49,370.59 193.78,361.61 196.73,350 213.04,314.59 219.33,294.58 221.3,282.75 222.14,270.79 221.04,246.83 217.61,226.12 212.98,208.74 205.57,189.1 187.77,151.07 184.31,139.59 182.82,127.7 183.09,118.71 184.98,106.87 192.1,83.97 205.18,53.68 229.99,2.36" fill="none" stroke="#000000" stroke-width="1"/><polyline id="SvgjsPolyline1430" points="261.93,598 251.74,576.27 246.48,559.08 243.35,541.36 237.28,493.75 233.75,476.1 229.83,461.63 220.42,436.33 198.68,390.21 195.8,381.69 194.06,372.87 193.94,363.88 196.42,352.17 212.61,316.72 218.52,299.73 221.46,285.03 222.63,270.09 222.48,258.09 221.15,243.15 218.71,228.36 215.22,213.77 207.34,191.12 188.36,150.33 185.57,141.78 183.83,132.96 183.39,120.98 185.47,106.14 190.51,88.88 199.45,66.61" fill="none" stroke="#000000" stroke-width="1"/><polyline id="SvgjsPolyline1431" points="280.46,598.18 281.94,577.24 281.69,562.25 279.56,547.41 276.29,535.87 269.35,519.27 214.68,405.76 209.54,391.68 207.47,379.89 207.77,370.9 210.62,359.27 226.98,323.89 233.22,307.01 237.37,289.51 239.96,268.68 243.87,154.76 243.29,130.78 241.47,118.92 239.06,110.26 226.69,82.95 223.65,74.49 221.59,65.73 220.92,56.76 221.64,47.8 224.06,36.05 235.63,1.98" fill="none" stroke="#000000" stroke-width="1"/><polyline id="SvgjsPolyline1432" points="279.99,597.36 280.64,582.37 280.2,570.39 278.47,558.52 275.21,546.98 269.42,533.15 253.75,500.74 231.48,448.28 209.36,402.33 205.09,391.12 202.56,379.41 202.49,370.42 204.98,358.71 209.47,347.59 222.38,320.51 229.05,300.62 232.95,276.97 233.75,249.99 231.38,214.08 226.63,184.47 223.55,172.88 218.48,158.77 204.45,128.91 200.15,117.71 197.78,105.97 197.77,93.99 200.41,79.24 206.91,59.28 232.32,1.65" fill="none" stroke="#000000" stroke-width="1"/><polyline id="SvgjsPolyline1433" points="304.21,597.5 314.45,569.31 331.1,514.8 340.62,480.08 347.22,450.82 353.02,412.27 357.94,334.44 359.66,319.54 362.44,304.8 369.79,281.98 387.36,243.85 389.83,235.21 390.86,226.28 389.06,211.43 383.05,194.49 333,92.07 323.79,69.92 320.04,55.41 318.23,40.53 318.15,22.54 319.71,1.6" fill="none" stroke="#000000" stroke-width="1"/><polyline id="SvgjsPolyline1434" points="282.3,598.87 290.04,563.71 298.86,535.05 309.06,510.06 332.38,461.37 342.43,433.12 346.69,415.64 349.69,397.89 355.57,332.16 359.86,305.53 367.07,282.66 384.71,244.56 387.4,235.98 388.75,227.09 388.74,221.09 387.47,212.19 381.82,195.13 331.75,92.72 322.89,70.44 319.41,55.86 317.83,40.95 317.91,22.96 319.57,2.03" fill="none" stroke="#000000" stroke-width="1"/><polyline id="SvgjsPolyline1435" points="281.23,599.36 285.91,563.67 287.78,536.74 287.24,509.75 283.3,458.91 283.74,443.93 285.55,432.07 287.88,423.38 292.1,412.16 308.93,376.98 315.57,360.26 320.84,343.05 329.98,305.14 334.92,287.83 342.43,268.23 359.07,232.97 362.67,221.53 363.97,212.64 363.08,197.7 359.32,183.19 352.9,166.38 327.57,108.7 322.57,94.57 318.74,80.07 316.38,65.26 315.49,47.29 316.23,29.31 319.02,2.46" fill="none" stroke="#000000" stroke-width="1"/><polyline id="SvgjsPolyline1436" points="281.1,599.06 284.35,572.26 285.63,554.31 285.5,536.31 283.96,521.4 281.04,506.69 276.96,492.26 258.58,441.49 254.1,427.18 251.09,412.5 250.54,400.52 252.18,388.65 255.81,377.22 272.48,341.98 280.25,322.47 295.07,270.56 299.8,256.33 306.64,239.68 322.22,207.23 326.36,195.98 328.48,187.24 329.72,175.31 328.96,160.34 326.53,145.54 317.12,101.54 313.91,74.75 314.1,44.77 319.05,0.05" fill="none" stroke="#000000" stroke-width="1"/><polyline id="SvgjsPolyline1437" points="281.17,597.13 283.74,573.27 284.54,555.29 283.5,537.33 280.78,522.59 276.44,508.24 270.91,494.3 243.96,437.36 235.65,418.08 230.51,400.85 229.51,385.93 231.49,374.1 234.12,365.5 251.85,327.45 259.12,307.76 263.78,290.37 272.76,249.35 278.71,229.22 286.6,209.77 302.21,177.33 308.94,157.46 311.07,145.66 312.13,130.7 311.35,82.72 312.07,58.73 314.24,34.83 318.59,2.12" fill="none" stroke="#000000" stroke-width="1"/><polyline id="SvgjsPolyline1438" points="280.76,598.76 282.83,577.86 283.41,559.88 282.32,544.92 279.33,530.24 275.59,518.84 269.74,505.03 223.64,410.71 218.02,393.63 216.77,384.73 216.78,378.73 218.15,369.85 220.84,361.27 238.53,323.19 245.31,303.33 250.25,279.85 257.5,229.38 263.92,203.17 272.32,180.7 292.87,137.33 299.75,117.5 305.26,91.09 318.3,2.04" fill="none" stroke="#000000" stroke-width="1"/><polyline id="SvgjsPolyline1439" points="280.65,597.87 282.36,576.94 282.27,558.95 280.25,544.1 277.12,532.53 267.83,510.41 217.82,407.97 211.89,391 210.46,382.13 210.38,376.13 211.64,367.23 214.29,358.64 231.92,320.53 236,309.25 239.84,294.76 243.48,271.05 249.19,202.29 252.69,181.59 257.05,164.13 262.77,147.07 268.47,133.2 291.85,84.53 301.01,62.35 309.96,33.73 317.3,1.56" fill="none" stroke="#000000" stroke-width="1"/><polyline id="SvgjsPolyline1440" points="280.46,598.79 282.08,577.86 282.03,562.86 280.21,547.99 277.2,536.38 269.28,516.95 216.89,408.99 210.57,392.16 208.52,380.35 208.83,371.37 211.69,359.74 231.43,316.02 235.17,304.62 238.54,290.01 241.73,263.21 244.21,209.27 246.34,182.36 259.3,93.32 259.94,78.34 258.78,66.41 255.54,54.88 245.48,33.09 242.79,24.51 241.63,12.6 242.74,0.66" fill="none" stroke="#000000" stroke-width="1"/><polyline id="SvgjsPolyline1441" points="329.58,597.49 325.58,586.19 324.08,577.33 323.86,565.34 325.02,553.4 329.45,529.82 345.33,462.67 351.49,427.21" fill="none" stroke="#000000" stroke-width="1"/><polyline id="SvgjsPolyline1442" points="368.12,598.2 385.71,560.06 394.88,537.88 400.3,520.73 402.66,505.94 402.09,493.98 400,485.23 396.8,476.82 381.63,444.19 377.74,432.84 373.96,418.33 368.85,385.74 366.66,349.82 367.75,322.86 371.35,302.19 378.04,282.31 390.96,255.23 395.39,244.09 397.77,232.36 397.64,223.37 395.12,211.65 390.91,200.42 368.77,154.49 348.33,107.76 331.34,72.66 325.59,58.81 322.25,47.3 320,32.48 319.56,17.49 320.25,2.51" fill="none" stroke="#000000" stroke-width="1"/><polyline id="SvgjsPolyline1443" points="281.67,597.92 287.91,556.39 294.38,505.8 299.2,482.3 306.12,462.49 326.67,419.12 334.24,399.54 340.9,373.4 348.97,320.01 353.45,299.5 361.39,276.88 377.92,241.56 380.63,232.99 382.03,224.11 382.11,218.11 380.98,209.19 375.63,192.03 367.01,172.89 331.17,100.25 325.38,86.41 321.62,75.02 318.42,60.38 316.9,42.45 317.32,24.47 319.52,0.57" fill="none" stroke="#000000" stroke-width="1"/><polyline id="SvgjsPolyline1444" points="281.41,597.39 286.08,555.66 286.59,540.67 286.07,525.68 282.31,498.97 271.61,455.26 268.73,440.54 267.57,425.6 268.61,413.66 273.63,396.41 291.55,358.44 298.4,341.8 318.07,275.68 324.67,258.94 342.55,220.95 346.12,209.5 347.7,197.63 347.14,185.65 344.17,170.96 322.94,108.49 319.07,94 316.31,79.26 314.86,64.34 314.72,46.34 315.9,28.38 318.98,1.56" fill="none" stroke="#000000" stroke-width="1"/><polyline id="SvgjsPolyline1445" points="209.08,383.38 208.85,374.4 211.09,362.64 215.41,351.45 230.7,318.87 235.51,304.67 238.9,290.06 241.9,266.26 244.68,212.34 246.98,185.44 250.87,158.72 256.37,132.29 265.58,97.49 277.92,57.35 288.73,26.17 299.29,1.33" fill="none" stroke="#000000" stroke-width="1"/><polyline id="SvgjsPolyline1446" points="280.61,597.45 282.16,576.51 282.01,561.52 280.04,546.66 276.92,535.08 268.88,515.69 216.49,407.74 210.4,390.82 208.66,378.97 209.26,370.01 211.41,361.28 231.1,317.54 234.96,306.18 238.49,291.61 241.65,267.83 244.95,204.92 248.33,172.1 253.96,139.59 267.3,81.09 271.03,60.43 272.05,45.48 270.8,33.56 267.06,22.18 256.96,0.42" fill="none" stroke="#000000" stroke-width="1"/><polyline id="SvgjsPolyline1447" points="353.27,599.6 352.57,593.64 350.08,585 340.05,563.21 337.02,554.75 334.91,542.95 334.77,530.96 337.2,510.11 347.9,454.13 352.34,424.46 354.66,400.58 357.55,343.65 359.49,322.75 362.66,305.04 367.8,287.8" fill="none" stroke="#000000" stroke-width="1"/><polyline id="SvgjsPolyline1448" points="394.56,597.3 394.39,591.31 395.42,582.38 401.2,562.21 411.66,537.33 440.69,478.06 451.6,453.37 458.98,430.55 461.34,412.74 460.5,400.79 457.61,389.15 453.19,378 436.82,342.63 433.45,331.12 431.89,319.24 432.16,310.25 434.51,298.5 438.7,287.26 450.11,262.8 452.9,251.17 452.95,245.18 451.31,236.34 448.22,227.9 435.49,200.74 432.74,192.18 431.42,183.29 431.63,177.3 433.64,168.55 442.37,149.46 445.41,141 446.72,132.12 446.15,123.15 444.24,114.36 439.46,100.15 413.5,36.23 408.05,19.08 403.59,1.64" fill="none" stroke="#000000" stroke-width="1"/><polyline id="SvgjsPolyline1449" points="361.97,597.13 365.93,579.59 366.57,570.62 366.15,564.64 361.96,550.28 351.84,528.52 348.29,517.08 346.52,502.2 347.08,484.22 354.34,418.63 358.51,337.74 361.35,313.92 364.63,299.29 369.35,285.06 384.58,252.45 388.98,241.3 391.36,229.56 391.28,220.57 388.91,208.83 382.45,192.04 332.39,89.63 325.3,73.09 321.71,61.64 319.36,49.88 318.24,37.94 318.22,22.94" fill="none" stroke="#000000" stroke-width="1"/><polyline id="SvgjsPolyline1450" points="364.38,599.56 376.6,565.71 379.36,554.04 380.36,542.1 379.85,536.13 377.69,527.4 362.01,491.73 359.6,483.06 357.69,471.22 356.9,441.25 359.98,336.3 362.35,315.44 366.26,297.88 372.27,280.93 385.2,253.86 389.72,242.75 392.32,231.06 392.42,222.08 390.22,210.3 385.07,196.22 332.67,88.28 323.57,66.09 320.02,51.53 318.43,36.62 318.41,21.63 319.89,0.68" fill="none" stroke="#000000" stroke-width="1"/><polyline id="SvgjsPolyline1451" points="370.13,598.8 396.51,544.91 408.66,517.49 416.28,494.75 418.97,476.99 418.05,462.03 415.28,450.37 410.92,439.2 394.2,403.97 386.32,381.32 381.77,360.83 379.49,339.96 379.68,321.98 382.35,304.19 388.85,284.25 405.06,248.81 407.63,237.11 407.17,225.15 405.02,216.42 401.87,207.99 383.74,170.12 374.93,147.8 368.95,124.58 366.54,103.73 366.87,85.75 369.85,68.02 374.59,53.8 389.66,21.12 393.11,9.64 394.66,0.78" fill="none" stroke="#000000" stroke-width="1"/><polyline id="SvgjsPolyline1452" points="370.45,597.52 394.12,548.98 406.32,521.58 413.28,501.78 416.74,484.14 416.77,472.16 413.64,457.52 409.22,446.37 393.74,413.88 384.92,388.38 380.45,367.87 377.88,344.02 378.32,323.04 381.29,305.3 386.91,288.22 403.2,252.81 406.08,241.18 406.34,232.2 404.97,223.32 401.3,211.9 380.74,168.54 371.79,146.28 364.29,120.35 355.43,76.24 351.63,61.73 345.32,44.88 332.47,17.78 327.17,0.61" fill="none" stroke="#000000" stroke-width="1"/><polyline id="SvgjsPolyline1453" points="419.31,597.74 411.69,581.44 409.45,572.74 409.26,563.76 411.37,551.96 415,540.53 421.84,523.88 452.01,461.84 461.53,439.81 467.74,419.77 469.23,410.9 469.66,401.91 468.86,392.96 465.91,381.34 447.39,340.36 443.88,328.9 442.32,317.02 442.76,308.04 445.46,296.36 458.98,266.29 461.66,257.71 462.42,251.77 462.18,245.78 460.12,237.03 445.37,204.22 442.91,195.57 442.19,189.62 442.43,183.63 444.57,174.91 455.32,150.18 456.7,141.31 456.03,132.35 453.88,123.61 448.63,109.57 423.36,55.15 415.15,35.83 409.11,18.87 404.2,1.56" fill="none" stroke="#000000" stroke-width="1"/><polyline id="SvgjsPolyline1454" points="373.65,598.81 411.02,523.58 423.5,496.3 432.47,470.86 434.93,459.12 435.77,450.17 435.16,438.2 431.94,423.56 426.58,409.56 412.21,379.86 406.44,366.02 401.2,348.81 398.44,331.04 398.78,313.07 401.76,298.39 406.93,284.32 419.71,257.19 422.42,248.61 423.55,239.7 422.77,230.75 420.41,222.07 400.53,178.41 396.84,167 394.86,155.18 394.91,146.19 396.47,137.34 399.38,128.83 411.69,101.5 413.85,92.77 414.74,83.82 413.27,62.9 401.93,0.93" fill="none" stroke="#000000" stroke-width="1"/><polyline id="SvgjsPolyline1455" points="377.96,599.36 392.96,566.63 423.44,504.73 434.66,480.18 443.64,454.74 446.08,443 446.89,434.04 446.23,422.07 443.56,410.38 438.11,396.42 420.33,358.39 415.79,344.1 413.62,332.3 413.27,317.33 415.83,302.58 420.95,288.49 433.56,261.28 435.84,252.59 436.29,243.62 435.51,237.68 433.05,229.03 416.73,193.63 413.69,185.16 411.73,176.38 411.36,167.41 412.86,158.55 415.94,150.1 427.2,125.58 429.25,116.83 429.69,107.86 428.8,98.9 426.33,87.17 410.84,35.44 402.58,0.41" fill="none" stroke="#000000" stroke-width="1"/><polyline id="SvgjsPolyline1456" points="371.59,598.06 399.58,541.62 413.29,511.61 421.4,489.03 424.11,477.35 425.16,468.41 424.83,456.43 421.46,441.84 417.01,430.71 400.23,395.5 393.08,375.77 388.26,355.34 386.29,337.46 386.76,319.49 390.13,301.83 395.13,287.7 410.22,255.03 412.6,246.36 413.3,240.41 412.35,228.48 408.93,216.99 389.79,176.27 383.3,159.49 379.6,144.97 378.29,133.05 378.92,121.08 381.69,109.42 397.78,73.93 400.63,65.4 402.5,56.6 403.58,35.65 400.85,2.78" fill="none" stroke="#000000" stroke-width="1"/><polyline id="SvgjsPolyline1457" points="369.46,599.89 397.07,543.27 409.03,515.76 416.19,492.88 417.68,484 418.13,475.02 416.79,463.12 413.37,451.63 395.57,413.6 388.15,393.96 382.85,373.66 379.97,355.89 378.8,331.94 379.63,319.97 381.6,308.14 387.92,288.14 404.18,252.72 406.53,244.04 407.29,235.09 405.69,223.22 401.95,211.83 382.62,171.2 373.61,148.97 368.41,131.74 364.69,114.13 361.6,87.32 360.79,57.34 362.14,27.38 363.86,12.48 366.16,0.71" fill="none" stroke="#000000" stroke-width="1"/><polyline id="SvgjsPolyline1458" points="439.13,597.98 442.31,583.34 442.19,574.37 440.79,568.54 433.35,552.16 430.71,543.58 430.12,534.62 431.32,525.71 434.58,514.17 441.27,497.46 467.49,443.5 474.75,427.03 480.51,409.99 482.92,395.21 482.72,386.22 480.31,374.48 476,363.29 462.19,333.34 459.73,324.69 458.56,315.78 458.97,306.8 460.93,298.03 464.09,289.61 474.27,267.88 477.11,256.27 477.05,250.27 475.13,241.5 461.64,211.41 459.22,202.76 458.66,196.79 459.16,190.82 460.68,185.02 470.4,163.1 471.83,157.28 472.22,151.3 470.21,139.5 464.85,125.51 418.44,31.32 411.25,14.82 406.17,0.71" fill="none" stroke="#000000" stroke-width="1"/><polyline id="SvgjsPolyline1459" points="463.46,598.46 465.61,589.73 468.74,581.29 487.85,540.57 491.85,526.15 492.06,520.16 490.28,511.37 482.79,495.01 479.93,486.49 478.98,477.56 480.47,465.68 483.94,454.2 488.46,443.09 510.28,397 514.01,385.61 515.67,373.75 515.4,367.76 513.53,358.97 510.33,350.56 500.09,328.86 497.34,320.3 496.37,314.39 496.28,308.39 497.81,299.54 500.91,291.1 509.78,272.08 511.97,263.37 512.05,257.38 510.06,248.63 500.05,226.83 496.78,215.32 496.68,209.33 497.82,203.45 506.29,184.26 507.97,178.51 508.47,172.54 506.05,160.84 491.03,128.14 486.87,113.76 486.33,104.79 487.11,98.85 489.86,90.3 498.54,71.19 500.06,65.39 500.74,56.43 499.79,47.49 496.99,35.83 484.8,1.97" fill="none" stroke="#000000" stroke-width="1"/><polyline id="SvgjsPolyline1460" points="446.7,598.17 456.44,576.25 459,567.63 459.83,561.69 459.56,555.71 458.09,549.9 449.52,530.74 446.94,522.14 446.41,513.17 447.63,504.27 450.94,492.74 456.49,478.81 480.03,430.21 487.21,413.71 491.76,399.43 493.63,384.58 492.85,375.63 490.62,366.92 474.69,331.35 472.16,322.72 471.05,313.8 471.28,307.81 473.02,298.99 476.12,290.55 486.23,268.79 488.72,257.11 488.39,251.12 487.04,245.28 473.72,215.12 471.33,203.41 471.67,197.43 473.11,191.61 481.74,172.48 483.51,166.76 484.24,160.81 483.84,154.83 479.49,140.51 460.08,99.92 449.99,74.88 440.98,46.28 429.88,2.67" fill="none" stroke="#000000" stroke-width="1"/><polyline id="SvgjsPolyline1461" points="487.49,598.86 483.73,590.69 482.19,584.9 481.91,578.91 482.73,572.98 487.54,558.8 504.04,523.47 506.6,514.85 507.38,508.91 507.1,502.93 505.7,497.1 498.24,480.73 495.23,472.27 494.05,463.36 494.76,454.4 496.85,445.66 500.93,434.38 522.42,388.15 525.71,376.62 526.52,367.67 524.67,355.85 521.52,347.43 511.37,325.69 508.91,317.05 508.27,311.09 509.86,299.24 520.73,274.57 522.6,268.87 523.47,262.94 523.08,256.96 521.59,251.16 511.64,229.33 508.7,217.75 508.94,211.77 510.42,205.96 518.87,186.76 520.03,180.89 519.86,174.9 516.45,163.43 503.89,136.2 501.49,127.54 500.84,121.58 501.2,115.6 502.61,109.77 511.21,90.63 513.05,84.93 513.97,79.01 513.62,70.03 511.77,61.23 506.97,47.02 486.57,0.29" fill="none" stroke="#000000" stroke-width="1"/><polyline id="SvgjsPolyline1462" points="453.39,599.33 471.63,561.5 474.86,553.1 476.91,544.35 477.1,538.36 476.06,532.46 467.6,513.27 465.02,504.67 464.32,495.71 465.92,483.84 469.32,472.34 473.72,461.18 499.35,406.94 503.2,395.58 505.2,383.77 504.88,374.79 502.92,366.02 499.72,357.61 488.25,333.18 485.57,324.59 484.41,315.68 484.67,309.69 486.56,300.91 498.69,273.5 500.88,264.79 501,258.8 499.19,250.01 486.98,222.64 484.63,210.92 485.19,204.96 486.86,199.2 494.39,182.87 496.21,177.15 496.97,171.21 496.57,165.23 492.16,150.94 474.5,112.85 470.97,101.39 469.53,92.51 469.66,83.53 471.65,74.77 482.69,50.15 485.88,38.61 485.89,23.65 480.68,0.25" fill="none" stroke="#000000" stroke-width="1"/><polyline id="SvgjsPolyline1463" points="449.15,598.79 462.05,571.72 465.12,563.26 466.93,554.46 466.9,548.47 465.65,542.61 457.12,523.44 454.83,514.75 454.46,505.78 456.35,493.95 464.36,471.35 492.54,411.69 497.09,397.41 498.61,385.52 497.95,376.56 495.75,367.84 480.95,335.06 478.18,326.5 476.81,317.62 477.2,308.64 479.3,299.9 490.42,275.32 493.73,263.82 493.91,257.84 492.21,249.02 479.97,221.66 477.05,210.06 477.14,204.08 478.42,198.22 486.98,179.06 488.79,173.35 489.58,167.41 489.26,161.43 485.08,147.07 468.27,111.88 461.47,95.22 457.16,80.86 454.83,66.06 454.92,57.07 456.53,48.23 459.59,39.77 469.74,18.04 472.13,9.37 472.96,0.42" fill="none" stroke="#000000" stroke-width="1"/><polyline id="SvgjsPolyline1464" points="509.97,597.22 509.43,591.26 507.78,585.49 500.62,569 499.54,560.11 500.35,554.17 502.99,545.58 518.23,512.97 522.56,498.65 522.92,492.67 522.15,486.73 520.35,481.01 511.69,461.9 509.66,453.15 509.42,447.16 510.55,438.24 513.97,426.75 532.89,385.94 535.95,377.48 537.83,368.69 538.1,362.7 536.78,353.82 533.79,345.34 523.71,323.57 521.41,314.89 520.99,308.91 523.17,297.16 533.05,275.3 534.82,269.58 535.51,263.63 534.16,254.76 523.3,230.08 521.41,221.3 521.72,215.33 523.31,209.55 531.62,190.3 532.45,184.37 531.88,178.41 529.12,169.86 517.85,145.34 515.29,133.66 515.53,127.67 516.92,121.84 526.35,99.81 527.38,93.91 526.97,84.94 523.91,73.35 518.3,59.44 489.5,0.06" fill="none" stroke="#000000" stroke-width="1"/><polyline id="SvgjsPolyline1465" points="532.22,597.73 545.04,570.61 548.18,559.07 547.38,550.16 539.46,530.77 538.89,524.81 539.62,518.86 543.47,507.52 556.16,480.35 559.07,468.74 559.1,462.75 557.96,456.87 549.43,437.7 546.63,429.16 545.85,423.22 546.46,414.26 550.87,399.96 564.76,370.03 567.18,361.38 567.74,355.41 567.23,349.44 565.72,343.64 555.81,321.8 552.99,310.19 553.21,304.2 554.55,298.36 564.24,276.43 565.92,267.62 564.53,258.77 554.86,236.83 553.27,228.02 554.86,219.2 561.12,205.58 562.97,199.88 563.11,190.94 560.39,182.39 551.6,163.33 549.6,154.58 550.48,145.67 559.5,123.49 559.84,114.54 558.62,108.67 555.54,100.22 542.51,73.2 536.7,59.38 533.3,47.88 532.06,38.98 532.63,30.01 534.18,24.22 543.55,2.17" fill="none" stroke="#000000" stroke-width="1"/><polyline id="SvgjsPolyline1466" points="521.82,598.48 527.31,584.54 528.18,575.63 526.85,569.8 518.42,550.6 517.56,544.67 518.01,538.7 521.51,527.24 536.57,494.56 538.91,485.88 539.39,479.91 538.74,473.96 537.03,468.21 527.4,446.26 526.15,440.4 526,431.42 527.61,422.57 530.42,414.03 547.92,375.87 550.38,367.22 551.09,361.27 549.63,349.41 537.61,321.96 535.13,310.27 535.44,304.29 536.78,298.45 546.55,276.55 548.77,267.85 548.7,261.87 547.35,256.03 537.56,234.14 535.54,225.4 536.46,216.49 544.77,197.24 546.14,188.39 545.27,182.47 543.37,176.78 532.31,152.17 530.65,143.35 531.66,134.45 540.02,115.22 541.59,109.43 541.99,103.46 540.6,94.58 534.2,77.78 497.85,2.06" fill="none" stroke="#000000" stroke-width="1"/><polyline id="SvgjsPolyline1467" points="557.22,599.85 554.36,591.35 554.75,582.41 557.53,573.86 568.88,549.38 571,540.66 570.12,531.76 564.02,518.07 562.24,512.35 562.07,503.4 565.5,491.93 578.08,464.71 580.65,453.03 580.35,447.05 578.88,441.24 571.37,424.89 568.48,416.39 567.68,410.45 567.92,404.46 572.01,390.08 584.51,362.82 586.7,351.07 585.44,342.19 575.76,320.26 573.9,314.56 573.06,308.63 573.49,302.66 575.08,296.88 582.62,280.54 585.05,271.91 584.4,262.99 574.93,240.97 573.35,232.16 575.11,223.38 582.3,206.9 583.09,200.98 581.37,192.19 572.66,173.09 570.53,164.38 571.51,155.49 579.59,136.14 580.01,127.21 576.58,115.75 563.93,88.55 560.83,76.99 560.51,71 561.31,65.07 570.53,42.96 572.04,34.12 571.68,28.14 569.71,19.36 563.27,2.57" fill="none" stroke="#000000" stroke-width="1"/><polyline id="SvgjsPolyline1468" points="581.49,598.09 579.75,592.37 573.55,578.72 572.61,569.83 575.91,558.34 586.01,536.59 587.67,530.83 588.14,524.86 587.04,518.98 579.91,502.48 578.91,493.58 581.78,481.97 594.27,454.72 596.75,443.03 596.32,437.05 594.71,431.28 585.22,409.28 584.21,403.37 584.3,397.38 587.27,385.78 599.59,358.46" fill="none" stroke="#000000" stroke-width="1"/><polyline id="SvgjsPolyline1469" points="599.43,315.44 598.04,306.59 599.69,297.78" fill="none" stroke="#000000" stroke-width="1"/><polyline id="SvgjsPolyline1470" points="599.65,241.73 599.68,235.74" fill="none" stroke="#000000" stroke-width="1"/><polyline id="SvgjsPolyline1471" points="599.42,182.39 598.59,176.47 599.75,167.57" fill="none" stroke="#000000" stroke-width="1"/><polyline id="SvgjsPolyline1472" points="599.76,110.21 599.01,104.27 599.66,98.32" fill="none" stroke="#000000" stroke-width="1"/><polyline id="SvgjsPolyline1473" points="599.09,261.98 592.71,248.41 590.62,239.7 592.04,230.87 599.19,214.37 599.71,205.46 597.07,196.88 589.58,180.52 588.21,171.68 589.34,165.81 596.47,149.31 597.33,140.4 594.15,128.88 582.92,104.34 581.01,95.57 581.27,89.59 582.88,83.82 591.45,64.67 592.61,58.79 592.52,52.8 590.59,44.03 587.46,35.59 570.51,0.48" fill="none" stroke="#000000" stroke-width="1"/><polyline id="SvgjsPolyline1474" points="599.47,579.3 593.4,565.59 591.64,556.83 593.36,548.04 599.54,534.38" fill="none" stroke="#000000" stroke-width="1"/><polyline id="SvgjsPolyline1475" points="599.6,29.48 597.26,17.75 597.78,11.79 599.61,6.08" fill="none" stroke="#000000" stroke-width="1"/></g></svg>